<?xml version="1.0" encoding="UTF-8" standalone="no"?>
<!DOCTYPE svg PUBLIC "-//W3C//DTD SVG 1.1//EN" "http://www.w3.org/Graphics/SVG/1.1/DTD/svg11.dtd">
<svg width="100%" height="100%" viewBox="0 0 3000 3000" version="1.1" xmlns="http://www.w3.org/2000/svg" xmlns:xlink="http://www.w3.org/1999/xlink" xml:space="preserve" xmlns:serif="http://www.serif.com/" style="fill-rule:evenodd;clip-rule:evenodd;stroke-linejoin:round;stroke-miterlimit:2;">
    <g transform="matrix(2.77778,0,0,2.77778,0,0)">
        <g transform="matrix(6.24189,-5.47969e-34,2.14494e-34,6.24189,-1604.3,-851.942)">
            <g transform="matrix(1,0,0,1,98.9345,-4.95065)">
                <path d="M199.6,277.951L199.6,242.951L219.6,242.951L219.6,277.951C219.6,297.281 203.93,312.951 184.6,312.951L184.6,292.951C192.878,292.951 199.6,286.229 199.6,277.951Z"/>
            </g>
            <g transform="matrix(6.12323e-17,-1,1,6.12323e-17,160.316,531.534)">
                <path d="M328.534,123.218L328.534,208.218C328.534,216.497 335.255,223.218 343.534,223.218C351.813,223.218 358.534,216.497 358.534,208.218C358.534,208.218 358.534,123.218 358.534,123.218L378.534,123.218L378.534,208.218C378.534,227.548 362.864,243.218 343.534,243.218C324.204,243.218 308.534,227.548 308.534,208.218L308.534,123.218L328.534,123.218Z"/>
            </g>
            <g transform="matrix(-1,-1.22465e-16,1.22465e-16,-1,911.534,456.218)">
                <path d="M558,218.218C558,190.622 535.596,168.218 508,168.218L508,148.218C546.66,148.218 578,179.558 578,218.218L578,318.218L558,318.218L558,218.218Z"/>
            </g>
        </g>
    </g>
</svg>
